<svg height="480pt" viewBox="0 0 480.12175 480" width="480pt" xmlns="http://www.w3.org/2000/svg"><g fill="#78b9eb"><path d="m472.050781 64.109375c0 30.929687-25.074219 56-56 56-30.929687 0-56-25.070313-56-56 0-30.925781 25.070313-56 56-56 30.925781 0 56 25.074219 56 56zm0 0"/><path d="m472.050781 416.109375c0 30.929687-25.074219 56-56 56-30.929687 0-56-25.070313-56-56 0-30.925781 25.070313-56 56-56 30.925781 0 56 25.074219 56 56zm0 0"/><path d="m344.050781 288.109375v-144h-144s-48 56-56 56h144v144zm0 0"/><path d="m232.050781 264.109375c-.027343-8.824219-7.175781-15.972656-16-16h-32c-8.808593.066406-15.933593 7.191406-16 16 .027344 8.828125 7.171875 15.976563 16 16h16c.027344 8.828125 7.171875 15.976563 16 16h32c8.808594-.0625 15.933594-7.1875 16-16-.027343-8.824219-7.175781-15.972656-16-16zm0 0"/><path d="m120.050781 64.109375c0 30.929687-25.074219 56-56 56-30.929687 0-56-25.070313-56-56 0-30.925781 25.070313-56 56-56 30.925781 0 56 25.074219 56 56zm0 0"/><path d="m120.050781 416.109375c0 30.929687-25.074219 56-56 56-30.929687 0-56-25.070313-56-56 0-30.925781 25.070313-56 56-56 30.925781 0 56 25.074219 56 56zm0 0"/></g><path d="m416.050781 352.109375c-35.332031.042969-63.960937 28.671875-64 64h-104v-64h40c2.121094 0 4.15625-.84375 5.65625-2.34375l56-56c1.5-1.5 2.34375-3.53125 2.34375-5.65625v-40h64c4.417969 0 8-3.582031 8-8v-112.550781c33.523438-4.222656 57.988281-33.78125 55.875-67.503906-2.117187-33.726563-30.085937-59.992188-63.875-59.992188-33.789062 0-61.757812 26.265625-63.875 59.992188-2.117187 33.722656 22.347657 63.28125 55.875 67.503906v104.550781h-56v-88c0-4.417969-3.582031-8-8-8h-96v-72c0-4.417969-3.582031-8-8-8h-112.554687c-4.222656-33.523437-33.78125-57.988281-67.503906-55.871094-33.722657 2.113281-59.992188 30.082031-59.992188 63.871094 0 33.792969 26.269531 61.761719 59.992188 63.875 33.722656 2.117187 63.28125-22.347656 67.503906-55.875h104.554687v64h-32c-2.335937 0-4.554687 1.023437-6.074219 2.792969-19.910156 23.199218-44.894531 49.855468-51.390624 53.34375-.324219.09375-.636719.214844-.945313.351562-.378906.109375-.753906.246094-1.109375.417969-.527344.269531-1.023438.605469-1.472656.992187-.847656.585938-1.515625 1.390626-1.9375 2.328126-.171875.253906-.332032.523437-.472656.800781-.390626.941406-.59375 1.953125-.597657 2.972656v32h-72c-4.417969 0-8 3.582031-8 8v112.554687c-33.527343 4.222657-57.992187 33.78125-55.875 67.503907 2.117188 33.722656 30.085938 59.992187 63.875 59.992187 33.789063 0 61.757813-26.269531 63.875-59.992187 2.113281-33.722657-22.351562-63.28125-55.875-67.503907v-104.554687h64v96c0 4.417969 3.582031 8 8 8h88v72c0 4.417969 3.582031 8 8 8h114.101563c8.320312 32.214844 39.929687 52.679687 72.722656 47.089844 32.796875-5.589844 55.839844-35.371094 53.015625-68.519531-2.824219-33.148438-30.574219-58.605469-63.839844-58.570313zm-48-288c0-26.507813 21.488281-48 48-48 26.507813 0 48 21.492187 48 48 0 26.511719-21.492187 48-48 48-26.5-.023437-47.972656-21.5-48-48zm-304 48c-26.511719 0-48-21.488281-48-48 0-26.507813 21.488281-48 48-48 26.507813 0 48 21.492187 48 48-.027343 26.5-21.503906 47.976563-48 48zm48 304c0 26.511719-21.492187 48-48 48-26.511719 0-48-21.488281-48-48 0-26.507813 21.488281-48 48-48 26.496094.027344 47.972657 21.503906 48 48zm224-184h-24v16h24v36.691406l-40 40v-121.378906l40-40zm-132.328125-80h28.328125v24h16v-24h76.6875l-40 40h-117.777343c8.511718-8.292969 20.289062-20.878906 36.761718-40zm-51.671875 56h128v128h-128zm264 256c-26.511719 0-48-21.488281-48-48 0-26.507813 21.488281-48 48-48 26.507813 0 48 21.492187 48 48-.027343 26.5-21.503906 47.976563-48 48zm0 0" fill="#1a6fb0"/><path d="m413.507812 420.800781-17.019531-11.347656-8.878906 13.3125 24 16c1.820313 1.214844 4.058594 1.628906 6.191406 1.152344 2.132813-.480469 3.980469-1.8125 5.105469-3.6875l24-40-13.710938-8.238281zm0 0" fill="#1a6fb0"/><path d="m44.488281 409.453125-8.878906 13.3125 24 16c1.820313 1.214844 4.058594 1.628906 6.191406 1.152344 2.132813-.480469 3.980469-1.8125 5.105469-3.6875l24-40-13.710938-8.238281-19.6875 32.796874zm0 0" fill="#1a6fb0"/><path d="m417.800781 87.917969c2.136719-.480469 3.980469-1.8125 5.105469-3.6875l24-40-13.710938-8.238281-19.6875 32.796874-17.019531-11.335937-8.878906 13.3125 24 16c1.820313 1.214844 4.058594 1.632813 6.191406 1.152344zm0 0" fill="#1a6fb0"/><path d="m61.507812 68.800781-17.019531-11.347656-8.878906 13.3125 24 16c1.820313 1.214844 4.058594 1.628906 6.191406 1.152344 2.132813-.480469 3.980469-1.8125 5.105469-3.6875l24-40-13.710938-8.238281zm0 0" fill="#1a6fb0"/><path d="m248.050781 256.109375h-9.472656c-3.378906-9.554687-12.394531-15.957031-22.527344-16h-32c-13.253906 0-24 10.746094-24 24 0 13.257813 10.746094 24 24 24h9.472657c3.375 9.554687 12.390624 15.960937 22.527343 16h32c13.253907 0 24-10.742187 24-24 0-13.253906-10.746093-24-24-24zm-72 8c0-4.417969 3.582031-8 8-8h32c-10.136719.042969-19.152343 6.445313-22.527343 16h-9.472657c-4.417969 0-8-3.582031-8-8zm72 24h-32c10.132813-.039063 19.148438-6.445313 22.527344-16h9.472656c4.417969 0 8 3.582031 8 8s-3.582031 8-8 8zm0 0" fill="#1a6fb0"/></svg>