<svg height="480pt" viewBox="0 0 480 480" width="480pt" xmlns="http://www.w3.org/2000/svg"><path d="m176 0h128v48h-128zm0 0" fill="#8892a0"/><path d="m304 128h-128c-26.511719 0-48-21.488281-48-48s21.488281-48 48-48h128c26.511719 0 48 21.488281 48 48s-21.488281 48-48 48zm0 0" fill="#f0d365"/><path d="m192 80c0 8.835938-7.164062 16-16 16s-16-7.164062-16-16 7.164062-16 16-16 16 7.164062 16 16zm0 0" fill="#fff"/><path d="m320 80c0 8.835938-7.164062 16-16 16s-16-7.164062-16-16 7.164062-16 16-16 16 7.164062 16 16zm0 0" fill="#fff"/><path d="m392 304-40-48h32l40 40" fill="#8892a0"/><path d="m87.976562 303.953125 39.695313-48.257813-32 .207032-39.742187 40.25" fill="#8892a0"/><path d="m176 304h32v160h-32zm0 0" fill="#8892a0"/><path d="m272 304h32v160h-32zm0 0" fill="#8892a0"/><path d="m176 224h128v32h-128zm0 0" fill="#8892a0"/><path d="m208 128h64v32h-64zm0 0" fill="#8892a0"/><g fill="#f0d365"><path d="m128 160v96h-32v-64c0-17.671875 14.328125-32 32-32zm0 0"/><path d="m352 160v96h32v-64c0-17.671875-14.328125-32-32-32zm0 0"/><path d="m160 160h160v64h-160zm0 0"/><path d="m160 256h160v48h-160zm0 0"/><path d="m216 376c0 13.253906-10.746094 24-24 24s-24-10.746094-24-24 10.746094-24 24-24 24 10.746094 24 24zm0 0"/><path d="m312 376c0 13.253906-10.746094 24-24 24s-24-10.746094-24-24 10.746094-24 24-24 24 10.746094 24 24zm0 0"/><path d="m192 448c17.671875 0 32 14.328125 32 32h-64c0-17.671875 14.328125-32 32-32zm0 0"/><path d="m288 448c17.671875 0 32 14.328125 32 32h-64c0-17.671875 14.328125-32 32-32zm0 0"/><path d="m64.128906 368.105469c-21.9375 0-39.847656-17.777344-40-39.746094-.136718-22.0625 17.695313-40.128906 39.75-40.253906h.25c21.941406 0 39.863282 17.78125 40 39.75l-16 .097656c-.082031-13.175781-10.832031-23.839844-24-23.839844-.058594 0-.105468 0-.160156 0-13.226562.078125-23.929688 10.910157-23.839844 24.160157.085938 13.175781 10.839844 23.839843 24 23.839843h.160156l.09375 16c-.085937-.007812-.175781-.007812-.253906-.007812zm0 0"/><path d="m416 368v-16c13.230469 0 24-10.769531 24-24s-10.769531-24-24-24-24 10.769531-24 24h-16c0-22.054688 17.945312-40 40-40s40 17.945312 40 40-17.945312 40-40 40zm0 0"/></g><path d="m64 88h-56c-4.425781 0-8 3.585938-8 8v96h16v-88h16v48c0 4.414062 3.574219 8 8 8h40v-16h-32v-40h24c4.425781 0 8-3.585938 8-8v-96h-16zm0 0" fill="#857970"/><path d="m472 168h-56v-168h-16v176c0 4.414062 3.574219 8 8 8h24v40h-32v16h40c4.425781 0 8-3.585938 8-8v-48h16v88h16v-96c0-4.414062-3.574219-8-8-8zm0 0" fill="#857970"/></svg>